<svg xmlns="http://www.w3.org/2000/svg" viewBox="0 0 1200 800" fill="none">
<defs>
  <linearGradient id="bg" x1="0" y1="0" x2="1" y2="1">
    <stop stop-color="#0F5F7A"/>
    <stop offset="1" stop-color="#16384D"/>
  </linearGradient>
  <linearGradient id="card" x1="0" y1="0" x2="1" y2="1">
    <stop stop-color="#ffffff" stop-opacity="0.95"/>
    <stop offset="1" stop-color="#dff6fb" stop-opacity="0.9"/>
  </linearGradient>
</defs>
<rect width="1200" height="800" rx="40" fill="url(#bg)"/>
<circle cx="180" cy="130" r="90" fill="#62D0E6" fill-opacity=".22"/>
<circle cx="1030" cy="120" r="120" fill="#8EE2F2" fill-opacity=".14"/>
<circle cx="1030" cy="660" r="160" fill="#62D0E6" fill-opacity=".12"/>
<rect x="120" y="140" width="960" height="520" rx="36" fill="white" fill-opacity=".08" stroke="white" stroke-opacity=".16"/>
<rect x="190" y="205" width="420" height="390" rx="32" fill="url(#card)"/>
<rect x="650" y="205" width="360" height="110" rx="28" fill="url(#card)"/>
<rect x="650" y="345" width="360" height="110" rx="28" fill="url(#card)"/>
<rect x="650" y="485" width="360" height="110" rx="28" fill="url(#card)"/>
<circle cx="395" cy="365" r="118" fill="#D8F4FA"/>
<path d="M334 454c0-40 28-75 69-83l37-7c46-9 87 26 87 73v39H334v-22Z" fill="#0F5F7A" fill-opacity=".9"/>
<circle cx="394" cy="336" r="74" fill="#F7D8C8"/>
<path d="M321 322c4-58 41-95 94-95 44 0 82 29 92 71-20 8-43 10-68 8-39-3-79 5-118 16Z" fill="#13384D"/>
<rect x="725" y="239" width="150" height="14" rx="7" fill="#0F5F7A" fill-opacity=".85"/>
<rect x="725" y="268" width="220" height="10" rx="5" fill="#0F5F7A" fill-opacity=".25"/>
<circle cx="685" cy="260" r="26" fill="#0F5F7A"/>
<path d="M673 260h24M685 248v24" stroke="white" stroke-width="8" stroke-linecap="round"/>
<rect x="725" y="379" width="150" height="14" rx="7" fill="#0F5F7A" fill-opacity=".85"/>
<rect x="725" y="408" width="220" height="10" rx="5" fill="#0F5F7A" fill-opacity=".25"/>
<circle cx="685" cy="400" r="26" fill="#0F5F7A"/>
<path d="M675 395c10-12 24-12 34 0M674 407c10 12 26 12 36 0" stroke="white" stroke-width="6" stroke-linecap="round"/>
<rect x="725" y="519" width="150" height="14" rx="7" fill="#0F5F7A" fill-opacity=".85"/>
<rect x="725" y="548" width="220" height="10" rx="5" fill="#0F5F7A" fill-opacity=".25"/>
<circle cx="685" cy="540" r="26" fill="#0F5F7A"/>
<path d="M678 533h14M678 547h14" stroke="white" stroke-width="6" stroke-linecap="round"/>
</svg>